<mxfile host="app.diagrams.net" agent="Mozilla/5.0 (Windows NT 10.0; Win64; x64) AppleWebKit/537.36 (KHTML, like Gecko) Chrome/128.0.0.0 Safari/537.36" version="24.7.15">
  <diagram name="Page-1" id="3QhnnHt4RwAMMHxWjjTZ">
    <mxGraphModel dx="587" dy="1384" grid="1" gridSize="10" guides="1" tooltips="1" connect="1" arrows="1" fold="1" page="1" pageScale="1" pageWidth="850" pageHeight="1100" math="0" shadow="0">
      <root>
        <mxCell id="0" />
        <mxCell id="1" parent="0" />
        <mxCell id="j-GzD6dtdvJHjIsCCd1G-5" style="edgeStyle=orthogonalEdgeStyle;rounded=0;orthogonalLoop=1;jettySize=auto;html=1;exitX=0;exitY=0.5;exitDx=0;exitDy=0;entryX=0.5;entryY=0;entryDx=0;entryDy=0;" edge="1" parent="1" source="j-GzD6dtdvJHjIsCCd1G-1" target="j-GzD6dtdvJHjIsCCd1G-2">
          <mxGeometry relative="1" as="geometry" />
        </mxCell>
        <mxCell id="j-GzD6dtdvJHjIsCCd1G-6" style="edgeStyle=orthogonalEdgeStyle;rounded=0;orthogonalLoop=1;jettySize=auto;html=1;exitX=1;exitY=0.5;exitDx=0;exitDy=0;entryX=0.5;entryY=0;entryDx=0;entryDy=0;" edge="1" parent="1" source="j-GzD6dtdvJHjIsCCd1G-1" target="j-GzD6dtdvJHjIsCCd1G-4">
          <mxGeometry relative="1" as="geometry" />
        </mxCell>
        <mxCell id="j-GzD6dtdvJHjIsCCd1G-1" value="Main Project" style="rounded=0;whiteSpace=wrap;html=1;" vertex="1" parent="1">
          <mxGeometry x="280" y="-1070" width="140" height="40" as="geometry" />
        </mxCell>
        <mxCell id="j-GzD6dtdvJHjIsCCd1G-7" style="edgeStyle=orthogonalEdgeStyle;rounded=0;orthogonalLoop=1;jettySize=auto;html=1;exitX=1;exitY=0.5;exitDx=0;exitDy=0;entryX=0;entryY=0.5;entryDx=0;entryDy=0;" edge="1" parent="1" source="j-GzD6dtdvJHjIsCCd1G-2" target="j-GzD6dtdvJHjIsCCd1G-4">
          <mxGeometry relative="1" as="geometry" />
        </mxCell>
        <mxCell id="j-GzD6dtdvJHjIsCCd1G-2" value="Register" style="rounded=0;whiteSpace=wrap;html=1;" vertex="1" parent="1">
          <mxGeometry x="220" y="-1010" width="80" height="40" as="geometry" />
        </mxCell>
        <mxCell id="j-GzD6dtdvJHjIsCCd1G-3" style="edgeStyle=orthogonalEdgeStyle;rounded=0;orthogonalLoop=1;jettySize=auto;html=1;exitX=0.5;exitY=1;exitDx=0;exitDy=0;" edge="1" parent="1" source="j-GzD6dtdvJHjIsCCd1G-2" target="j-GzD6dtdvJHjIsCCd1G-2">
          <mxGeometry relative="1" as="geometry" />
        </mxCell>
        <mxCell id="j-GzD6dtdvJHjIsCCd1G-13" style="edgeStyle=orthogonalEdgeStyle;rounded=0;orthogonalLoop=1;jettySize=auto;html=1;exitX=1;exitY=0.5;exitDx=0;exitDy=0;entryX=0.5;entryY=0;entryDx=0;entryDy=0;" edge="1" parent="1" source="j-GzD6dtdvJHjIsCCd1G-4" target="j-GzD6dtdvJHjIsCCd1G-10">
          <mxGeometry relative="1" as="geometry" />
        </mxCell>
        <mxCell id="j-GzD6dtdvJHjIsCCd1G-14" style="edgeStyle=orthogonalEdgeStyle;rounded=0;orthogonalLoop=1;jettySize=auto;html=1;exitX=0.25;exitY=1;exitDx=0;exitDy=0;entryX=0.5;entryY=0;entryDx=0;entryDy=0;" edge="1" parent="1" source="j-GzD6dtdvJHjIsCCd1G-4" target="j-GzD6dtdvJHjIsCCd1G-8">
          <mxGeometry relative="1" as="geometry" />
        </mxCell>
        <mxCell id="j-GzD6dtdvJHjIsCCd1G-4" value="Login" style="rounded=0;whiteSpace=wrap;html=1;" vertex="1" parent="1">
          <mxGeometry x="400" y="-1020" width="80" height="40" as="geometry" />
        </mxCell>
        <mxCell id="j-GzD6dtdvJHjIsCCd1G-19" style="edgeStyle=orthogonalEdgeStyle;rounded=0;orthogonalLoop=1;jettySize=auto;html=1;exitX=0.5;exitY=1;exitDx=0;exitDy=0;" edge="1" parent="1" source="j-GzD6dtdvJHjIsCCd1G-8">
          <mxGeometry relative="1" as="geometry">
            <mxPoint x="390" y="-870" as="targetPoint" />
          </mxGeometry>
        </mxCell>
        <mxCell id="j-GzD6dtdvJHjIsCCd1G-8" value="Simple Login" style="rounded=0;whiteSpace=wrap;html=1;" vertex="1" parent="1">
          <mxGeometry x="280" y="-940" width="80" height="40" as="geometry" />
        </mxCell>
        <mxCell id="j-GzD6dtdvJHjIsCCd1G-20" style="edgeStyle=orthogonalEdgeStyle;rounded=0;orthogonalLoop=1;jettySize=auto;html=1;" edge="1" parent="1" source="j-GzD6dtdvJHjIsCCd1G-9">
          <mxGeometry relative="1" as="geometry">
            <mxPoint x="450" y="-870" as="targetPoint" />
          </mxGeometry>
        </mxCell>
        <mxCell id="j-GzD6dtdvJHjIsCCd1G-9" value="Google Login" style="rounded=0;whiteSpace=wrap;html=1;" vertex="1" parent="1">
          <mxGeometry x="410" y="-950" width="80" height="40" as="geometry" />
        </mxCell>
        <mxCell id="j-GzD6dtdvJHjIsCCd1G-21" style="edgeStyle=orthogonalEdgeStyle;rounded=0;orthogonalLoop=1;jettySize=auto;html=1;" edge="1" parent="1" source="j-GzD6dtdvJHjIsCCd1G-10">
          <mxGeometry relative="1" as="geometry">
            <mxPoint x="510" y="-870" as="targetPoint" />
          </mxGeometry>
        </mxCell>
        <mxCell id="j-GzD6dtdvJHjIsCCd1G-10" value="Fb Login" style="rounded=0;whiteSpace=wrap;html=1;" vertex="1" parent="1">
          <mxGeometry x="540" y="-940" width="80" height="40" as="geometry" />
        </mxCell>
        <mxCell id="j-GzD6dtdvJHjIsCCd1G-12" style="edgeStyle=orthogonalEdgeStyle;rounded=0;orthogonalLoop=1;jettySize=auto;html=1;entryX=0.369;entryY=-0.04;entryDx=0;entryDy=0;entryPerimeter=0;" edge="1" parent="1" source="j-GzD6dtdvJHjIsCCd1G-4" target="j-GzD6dtdvJHjIsCCd1G-9">
          <mxGeometry relative="1" as="geometry" />
        </mxCell>
        <mxCell id="j-GzD6dtdvJHjIsCCd1G-24" style="edgeStyle=orthogonalEdgeStyle;rounded=0;orthogonalLoop=1;jettySize=auto;html=1;exitX=0.5;exitY=1;exitDx=0;exitDy=0;entryX=1;entryY=0.5;entryDx=0;entryDy=0;" edge="1" parent="1" source="j-GzD6dtdvJHjIsCCd1G-15" target="j-GzD6dtdvJHjIsCCd1G-22">
          <mxGeometry relative="1" as="geometry" />
        </mxCell>
        <mxCell id="j-GzD6dtdvJHjIsCCd1G-15" value="SuperAdmin&lt;div&gt;Admin&lt;/div&gt;" style="rounded=0;whiteSpace=wrap;html=1;" vertex="1" parent="1">
          <mxGeometry x="335" y="-850" width="80" height="40" as="geometry" />
        </mxCell>
        <mxCell id="j-GzD6dtdvJHjIsCCd1G-25" style="edgeStyle=orthogonalEdgeStyle;rounded=0;orthogonalLoop=1;jettySize=auto;html=1;exitX=0.5;exitY=1;exitDx=0;exitDy=0;entryX=0;entryY=0.5;entryDx=0;entryDy=0;" edge="1" parent="1" source="j-GzD6dtdvJHjIsCCd1G-16" target="j-GzD6dtdvJHjIsCCd1G-23">
          <mxGeometry relative="1" as="geometry" />
        </mxCell>
        <mxCell id="j-GzD6dtdvJHjIsCCd1G-16" value="User" style="rounded=0;whiteSpace=wrap;html=1;" vertex="1" parent="1">
          <mxGeometry x="480" y="-850" width="80" height="40" as="geometry" />
        </mxCell>
        <mxCell id="j-GzD6dtdvJHjIsCCd1G-18" value="" style="shape=link;html=1;rounded=0;" edge="1" parent="1">
          <mxGeometry width="100" relative="1" as="geometry">
            <mxPoint x="280" y="-870" as="sourcePoint" />
            <mxPoint x="600" y="-870" as="targetPoint" />
          </mxGeometry>
        </mxCell>
        <mxCell id="j-GzD6dtdvJHjIsCCd1G-22" value="Admin Dashboard" style="rounded=0;whiteSpace=wrap;html=1;" vertex="1" parent="1">
          <mxGeometry x="200" y="-780" width="80" height="40" as="geometry" />
        </mxCell>
        <mxCell id="j-GzD6dtdvJHjIsCCd1G-23" value="User Dashboard" style="rounded=0;whiteSpace=wrap;html=1;" vertex="1" parent="1">
          <mxGeometry x="600" y="-780" width="80" height="40" as="geometry" />
        </mxCell>
      </root>
    </mxGraphModel>
  </diagram>
</mxfile>
